<mxfile host="app.diagrams.net" agent="Mozilla/5.0 (Windows NT 10.0; Win64; x64) AppleWebKit/537.36 (KHTML, like Gecko) Chrome/134.0.0.0 Safari/537.36 OPR/119.0.0.0" version="27.1.6">
  <diagram id="C5RBs43oDa-KdzZeNtuy" name="Page-1">
    <mxGraphModel dx="1614" dy="955" grid="1" gridSize="10" guides="1" tooltips="1" connect="1" arrows="1" fold="1" page="1" pageScale="1" pageWidth="827" pageHeight="1169" math="0" shadow="0">
      <root>
        <mxCell id="WIyWlLk6GJQsqaUBKTNV-0" />
        <mxCell id="WIyWlLk6GJQsqaUBKTNV-1" parent="WIyWlLk6GJQsqaUBKTNV-0" />
        <mxCell id="vaapL6yAOFuLathCSvbo-5" style="edgeStyle=orthogonalEdgeStyle;rounded=0;orthogonalLoop=1;jettySize=auto;html=1;entryX=0.5;entryY=0;entryDx=0;entryDy=0;" parent="WIyWlLk6GJQsqaUBKTNV-1" source="vaapL6yAOFuLathCSvbo-0" target="vaapL6yAOFuLathCSvbo-2" edge="1">
          <mxGeometry relative="1" as="geometry" />
        </mxCell>
        <mxCell id="vaapL6yAOFuLathCSvbo-0" value="Send Request" style="rounded=1;whiteSpace=wrap;html=1;" parent="WIyWlLk6GJQsqaUBKTNV-1" vertex="1">
          <mxGeometry x="354" y="30" width="120" height="60" as="geometry" />
        </mxCell>
        <mxCell id="vaapL6yAOFuLathCSvbo-14" value="" style="edgeStyle=orthogonalEdgeStyle;rounded=0;orthogonalLoop=1;jettySize=auto;html=1;" parent="WIyWlLk6GJQsqaUBKTNV-1" source="vaapL6yAOFuLathCSvbo-2" target="vaapL6yAOFuLathCSvbo-8" edge="1">
          <mxGeometry relative="1" as="geometry" />
        </mxCell>
        <mxCell id="vaapL6yAOFuLathCSvbo-2" value="Get Reservation Info" style="shape=parallelogram;perimeter=parallelogramPerimeter;whiteSpace=wrap;html=1;fixedSize=1;" parent="WIyWlLk6GJQsqaUBKTNV-1" vertex="1">
          <mxGeometry x="345" y="140" width="137" height="40" as="geometry" />
        </mxCell>
        <mxCell id="vaapL6yAOFuLathCSvbo-11" style="edgeStyle=orthogonalEdgeStyle;rounded=0;orthogonalLoop=1;jettySize=auto;html=1;" parent="WIyWlLk6GJQsqaUBKTNV-1" source="vaapL6yAOFuLathCSvbo-8" target="vaapL6yAOFuLathCSvbo-9" edge="1">
          <mxGeometry relative="1" as="geometry" />
        </mxCell>
        <mxCell id="E0rvTRaIvLny0trjm9gZ-0" value="Yes" style="edgeLabel;html=1;align=center;verticalAlign=middle;resizable=0;points=[];" vertex="1" connectable="0" parent="vaapL6yAOFuLathCSvbo-11">
          <mxGeometry x="-0.175" relative="1" as="geometry">
            <mxPoint as="offset" />
          </mxGeometry>
        </mxCell>
        <mxCell id="E0rvTRaIvLny0trjm9gZ-3" style="edgeStyle=orthogonalEdgeStyle;rounded=0;orthogonalLoop=1;jettySize=auto;html=1;exitX=0;exitY=0.5;exitDx=0;exitDy=0;" edge="1" parent="WIyWlLk6GJQsqaUBKTNV-1" source="vaapL6yAOFuLathCSvbo-8" target="E0rvTRaIvLny0trjm9gZ-9">
          <mxGeometry relative="1" as="geometry">
            <mxPoint x="320" y="150" as="targetPoint" />
          </mxGeometry>
        </mxCell>
        <mxCell id="E0rvTRaIvLny0trjm9gZ-4" value="No" style="edgeLabel;html=1;align=center;verticalAlign=middle;resizable=0;points=[];" vertex="1" connectable="0" parent="E0rvTRaIvLny0trjm9gZ-3">
          <mxGeometry x="-0.0187" y="2" relative="1" as="geometry">
            <mxPoint x="1" as="offset" />
          </mxGeometry>
        </mxCell>
        <mxCell id="vaapL6yAOFuLathCSvbo-8" value="Client Exist In Database" style="rhombus;whiteSpace=wrap;html=1;" parent="WIyWlLk6GJQsqaUBKTNV-1" vertex="1">
          <mxGeometry x="351" y="220" width="126" height="80" as="geometry" />
        </mxCell>
        <mxCell id="vaapL6yAOFuLathCSvbo-12" style="edgeStyle=orthogonalEdgeStyle;rounded=0;orthogonalLoop=1;jettySize=auto;html=1;" parent="WIyWlLk6GJQsqaUBKTNV-1" source="vaapL6yAOFuLathCSvbo-9" target="vaapL6yAOFuLathCSvbo-10" edge="1">
          <mxGeometry relative="1" as="geometry" />
        </mxCell>
        <mxCell id="E0rvTRaIvLny0trjm9gZ-1" value="Yes" style="edgeLabel;html=1;align=center;verticalAlign=middle;resizable=0;points=[];" vertex="1" connectable="0" parent="vaapL6yAOFuLathCSvbo-12">
          <mxGeometry x="0.1511" y="1" relative="1" as="geometry">
            <mxPoint as="offset" />
          </mxGeometry>
        </mxCell>
        <mxCell id="vaapL6yAOFuLathCSvbo-9" value="Room Exist In Database" style="rhombus;whiteSpace=wrap;html=1;" parent="WIyWlLk6GJQsqaUBKTNV-1" vertex="1">
          <mxGeometry x="351" y="340" width="126" height="80" as="geometry" />
        </mxCell>
        <mxCell id="vaapL6yAOFuLathCSvbo-15" style="edgeStyle=orthogonalEdgeStyle;rounded=0;orthogonalLoop=1;jettySize=auto;html=1;entryX=0.5;entryY=0;entryDx=0;entryDy=0;" parent="WIyWlLk6GJQsqaUBKTNV-1" source="vaapL6yAOFuLathCSvbo-10" target="E0rvTRaIvLny0trjm9gZ-10" edge="1">
          <mxGeometry relative="1" as="geometry">
            <mxPoint x="414" y="585" as="targetPoint" />
          </mxGeometry>
        </mxCell>
        <mxCell id="E0rvTRaIvLny0trjm9gZ-2" value="Yes" style="edgeLabel;html=1;align=center;verticalAlign=middle;resizable=0;points=[];" vertex="1" connectable="0" parent="vaapL6yAOFuLathCSvbo-15">
          <mxGeometry x="-0.1172" y="2" relative="1" as="geometry">
            <mxPoint as="offset" />
          </mxGeometry>
        </mxCell>
        <mxCell id="vaapL6yAOFuLathCSvbo-10" value="Owner Exist In Database" style="rhombus;whiteSpace=wrap;html=1;" parent="WIyWlLk6GJQsqaUBKTNV-1" vertex="1">
          <mxGeometry x="351" y="450" width="126" height="80" as="geometry" />
        </mxCell>
        <mxCell id="E0rvTRaIvLny0trjm9gZ-5" style="edgeStyle=orthogonalEdgeStyle;rounded=0;orthogonalLoop=1;jettySize=auto;html=1;exitX=0;exitY=0.5;exitDx=0;exitDy=0;endArrow=none;startFill=0;" edge="1" parent="WIyWlLk6GJQsqaUBKTNV-1">
          <mxGeometry relative="1" as="geometry">
            <mxPoint x="333" y="260" as="targetPoint" />
            <mxPoint x="354" y="380" as="sourcePoint" />
          </mxGeometry>
        </mxCell>
        <mxCell id="E0rvTRaIvLny0trjm9gZ-6" value="No" style="edgeLabel;html=1;align=center;verticalAlign=middle;resizable=0;points=[];" vertex="1" connectable="0" parent="E0rvTRaIvLny0trjm9gZ-5">
          <mxGeometry x="-0.0187" y="2" relative="1" as="geometry">
            <mxPoint x="1" as="offset" />
          </mxGeometry>
        </mxCell>
        <mxCell id="E0rvTRaIvLny0trjm9gZ-7" style="edgeStyle=orthogonalEdgeStyle;rounded=0;orthogonalLoop=1;jettySize=auto;html=1;exitX=0;exitY=0.5;exitDx=0;exitDy=0;endArrow=none;startFill=0;" edge="1" parent="WIyWlLk6GJQsqaUBKTNV-1" source="vaapL6yAOFuLathCSvbo-10">
          <mxGeometry relative="1" as="geometry">
            <mxPoint x="340" y="380" as="targetPoint" />
            <mxPoint x="351" y="490" as="sourcePoint" />
            <Array as="points">
              <mxPoint x="340" y="490" />
              <mxPoint x="340" y="420" />
              <mxPoint x="341" y="420" />
              <mxPoint x="341" y="380" />
            </Array>
          </mxGeometry>
        </mxCell>
        <mxCell id="E0rvTRaIvLny0trjm9gZ-8" value="No" style="edgeLabel;html=1;align=center;verticalAlign=middle;resizable=0;points=[];" vertex="1" connectable="0" parent="E0rvTRaIvLny0trjm9gZ-7">
          <mxGeometry x="-0.0187" y="2" relative="1" as="geometry">
            <mxPoint x="1" as="offset" />
          </mxGeometry>
        </mxCell>
        <mxCell id="E0rvTRaIvLny0trjm9gZ-9" value="Show Error Message" style="rounded=1;whiteSpace=wrap;html=1;" vertex="1" parent="WIyWlLk6GJQsqaUBKTNV-1">
          <mxGeometry x="160" y="490" width="120" height="40" as="geometry" />
        </mxCell>
        <mxCell id="E0rvTRaIvLny0trjm9gZ-12" style="edgeStyle=orthogonalEdgeStyle;rounded=0;orthogonalLoop=1;jettySize=auto;html=1;" edge="1" parent="WIyWlLk6GJQsqaUBKTNV-1" source="E0rvTRaIvLny0trjm9gZ-10" target="E0rvTRaIvLny0trjm9gZ-11">
          <mxGeometry relative="1" as="geometry" />
        </mxCell>
        <mxCell id="E0rvTRaIvLny0trjm9gZ-10" value="Create Reservation" style="rounded=1;whiteSpace=wrap;html=1;" vertex="1" parent="WIyWlLk6GJQsqaUBKTNV-1">
          <mxGeometry x="357" y="590" width="120" height="45" as="geometry" />
        </mxCell>
        <mxCell id="E0rvTRaIvLny0trjm9gZ-11" value="Go To validation page" style="ellipse;whiteSpace=wrap;html=1;" vertex="1" parent="WIyWlLk6GJQsqaUBKTNV-1">
          <mxGeometry x="337" y="680" width="160" height="45" as="geometry" />
        </mxCell>
      </root>
    </mxGraphModel>
  </diagram>
</mxfile>
